<svg width="33" height="33" viewBox="0 0 33 33" fill="none" xmlns="http://www.w3.org/2000/svg">
<path d="M7.05758 7.27687H25.7376C26.4427 7.27687 27.119 7.55685 27.6178 8.05526C28.1166 8.55368 28.3971 9.22975 28.3976 9.93487V25.9509C28.3976 26.3001 28.3288 26.646 28.1951 26.9687C28.0614 27.2913 27.8654 27.5845 27.6184 27.8314C27.3714 28.0783 27.0782 28.2742 26.7554 28.4078C26.4327 28.5413 26.0869 28.61 25.7376 28.6099H7.05758C6.35228 28.6099 5.67585 28.3298 5.17703 27.8311C4.67821 27.3325 4.39785 26.6562 4.39758 25.9509V9.93487C4.39771 9.58569 4.46662 9.23995 4.60037 8.9174C4.73412 8.59484 4.93009 8.30179 5.17709 8.05497C5.4241 7.80815 5.7173 7.6124 6.03995 7.4789C6.36261 7.34539 6.7084 7.27674 7.05758 7.27687ZM7.06458 12.6099V24.6099C7.06458 24.9634 7.20502 25.3025 7.45501 25.5524C7.705 25.8024 8.04405 25.9429 8.39758 25.9429H24.3976C24.7511 25.9429 25.0902 25.8024 25.3402 25.5524C25.5901 25.3025 25.7306 24.9634 25.7306 24.6099V12.6099H7.06458ZM8.39758 5.94288C8.39758 5.58921 8.53808 5.25003 8.78816 4.99995C9.03824 4.74987 9.37742 4.60938 9.73108 4.60938C10.0847 4.60938 10.4239 4.74987 10.674 4.99995C10.9241 5.25003 11.0646 5.58921 11.0646 5.94288V7.27687H8.39758V5.94288ZM21.7306 5.94288C21.7306 5.58921 21.8711 5.25003 22.1212 4.99995C22.3712 4.74987 22.7104 4.60938 23.0641 4.60938C23.4177 4.60938 23.7569 4.74987 24.007 4.99995C24.2571 5.25003 24.3976 5.58921 24.3976 5.94288V7.27687H21.7306V5.94288ZM9.73058 17.9429V15.2749H12.3976V17.9429H9.73058ZM20.3976 17.9429V15.2749H23.0646V17.9429H20.3976ZM15.0646 17.9429V15.2749H17.7326V17.9429H15.0646ZM9.73058 23.2769V20.6099H12.3976V23.2769H9.73058ZM15.0646 23.2769V20.6099H17.7326V23.2769H15.0646ZM20.3976 23.2769V20.6099H23.0646V23.2769H20.3976Z" fill="#00C7E5"/>
</svg>
