<svg width="33" height="33" viewBox="0 0 33 33" fill="none" xmlns="http://www.w3.org/2000/svg">
<path d="M6.84766 5.94287H16.1807C17.0648 5.94287 17.9126 6.29408 18.5378 6.91923C19.163 7.54438 19.5142 8.39227 19.5142 9.27637C19.5142 10.1605 19.163 11.0084 18.5378 11.6335C17.9126 12.2587 17.0648 12.6099 16.1807 12.6099H6.84766C5.96356 12.6099 5.11567 12.2587 4.49052 11.6335C3.86537 11.0084 3.51416 10.1605 3.51416 9.27637C3.51416 8.39227 3.86537 7.54438 4.49052 6.91923C5.11567 6.29408 5.96356 5.94287 6.84766 5.94287ZM16.1807 9.94287C16.353 9.9362 16.516 9.86305 16.6355 9.73879C16.7551 9.61453 16.8218 9.4488 16.8218 9.27637C16.8218 9.10394 16.7551 8.93821 16.6355 8.81395C16.516 8.68969 16.353 8.61655 16.1807 8.60987H6.84766C6.67536 8.61655 6.51234 8.68969 6.3928 8.81395C6.27326 8.93821 6.20648 9.10394 6.20648 9.27637C6.20648 9.4488 6.27326 9.61453 6.3928 9.73879C6.51234 9.86305 6.67536 9.9362 6.84766 9.94287H16.1807ZM9.51466 13.9429H18.8477C19.7318 13.9429 20.5796 14.2941 21.2048 14.9192C21.83 15.5444 22.1812 16.3923 22.1812 17.2764C22.1812 18.1605 21.83 19.0084 21.2048 19.6335C20.5796 20.2587 19.7318 20.6099 18.8477 20.6099H9.51466C8.63056 20.6099 7.78267 20.2587 7.15752 19.6335C6.53237 19.0084 6.18116 18.1605 6.18116 17.2764C6.18116 16.3923 6.53237 15.5444 7.15752 14.9192C7.78267 14.2941 8.63056 13.9429 9.51466 13.9429ZM18.8477 17.9429C19.02 17.9362 19.183 17.8631 19.3025 17.7388C19.4221 17.6145 19.4888 17.4488 19.4888 17.2764C19.4888 17.1039 19.4221 16.9382 19.3025 16.8139C19.183 16.6897 19.02 16.6165 18.8477 16.6099H9.51466C9.34236 16.6165 9.17934 16.6897 9.0598 16.8139C8.94026 16.9382 8.87348 17.1039 8.87348 17.2764C8.87348 17.4488 8.94026 17.6145 9.0598 17.7388C9.17934 17.8631 9.34236 17.9362 9.51466 17.9429H18.8477ZM25.5147 21.9429H16.1807C15.2966 21.9429 14.4487 22.2941 13.8235 22.9192C13.1984 23.5444 12.8472 24.3923 12.8472 25.2764C12.8472 26.1605 13.1984 27.0084 13.8235 27.6335C14.4487 28.2587 15.2966 28.6099 16.1807 28.6099H25.5147C26.3988 28.6099 27.2466 28.2587 27.8718 27.6335C28.497 27.0084 28.8482 26.1605 28.8482 25.2764C28.8482 24.3923 28.497 23.5444 27.8718 22.9192C27.2466 22.2941 26.3988 21.9429 25.5147 21.9429ZM16.1807 25.9429C16.0084 25.9362 15.8453 25.8631 15.7258 25.7388C15.6063 25.6145 15.5395 25.4488 15.5395 25.2764C15.5395 25.1039 15.6063 24.9382 15.7258 24.8139C15.8453 24.6897 16.0084 24.6165 16.1807 24.6099H25.5147C25.6044 24.6064 25.6938 24.6211 25.7777 24.653C25.8616 24.6849 25.9382 24.7335 26.0029 24.7957C26.0676 24.8579 26.1191 24.9326 26.1542 25.0152C26.1894 25.0978 26.2075 25.1866 26.2075 25.2764C26.2075 25.3661 26.1894 25.455 26.1542 25.5376C26.1191 25.6202 26.0676 25.6948 26.0029 25.7571C25.9382 25.8193 25.8616 25.8678 25.7777 25.8997C25.6938 25.9317 25.6044 25.9463 25.5147 25.9429H16.1807ZM24.1807 5.94287H26.8477C27.2854 5.94287 27.7189 6.02909 28.1233 6.19662C28.5278 6.36414 28.8953 6.60969 29.2048 6.91923C29.5143 7.22877 29.7599 7.59626 29.9274 8.0007C30.0949 8.40513 30.1812 8.83861 30.1812 9.27637C30.1812 9.71413 30.0949 10.1476 29.9274 10.552C29.7599 10.9565 29.5143 11.324 29.2048 11.6335C28.8953 11.9431 28.5278 12.1886 28.1233 12.3561C27.7189 12.5236 27.2854 12.6099 26.8477 12.6099H24.1807C23.7429 12.6099 23.3094 12.5236 22.905 12.3561C22.5005 12.1886 22.1331 11.9431 21.8235 11.6335C21.514 11.324 21.2684 10.9565 21.1009 10.552C20.9334 10.1476 20.8472 9.71413 20.8472 9.27637C20.8472 8.83861 20.9334 8.40513 21.1009 8.0007C21.2684 7.59626 21.514 7.22877 21.8235 6.91923C22.1331 6.60969 22.5005 6.36414 22.905 6.19662C23.3094 6.02909 23.7429 5.94287 24.1807 5.94287ZM26.8477 9.94287C26.9374 9.94635 27.0268 9.93168 27.1107 9.89975C27.1946 9.86782 27.2712 9.81929 27.3359 9.75705C27.4006 9.69482 27.4521 9.62017 27.4872 9.53757C27.5224 9.45498 27.5405 9.36614 27.5405 9.27637C27.5405 9.18661 27.5224 9.09776 27.4872 9.01517C27.4521 8.93257 27.4006 8.85792 27.3359 8.79569C27.2712 8.73345 27.1946 8.68492 27.1107 8.65299C27.0268 8.62106 26.9374 8.6064 26.8477 8.60987H24.1807C24.091 8.6064 24.0015 8.62106 23.9176 8.65299C23.8337 8.68492 23.7571 8.73345 23.6924 8.79569C23.6277 8.85792 23.5763 8.93257 23.5411 9.01517C23.506 9.09776 23.4878 9.18661 23.4878 9.27637C23.4878 9.36614 23.506 9.45498 23.5411 9.53757C23.5763 9.62017 23.6277 9.69482 23.6924 9.75705C23.7571 9.81929 23.8337 9.86782 23.9176 9.89975C24.0015 9.93168 24.091 9.94635 24.1807 9.94287H26.8477Z" fill="#8777D9"/>
</svg>
