<svg width="25" height="25" viewBox="0 0 25 25" fill="none" xmlns="http://www.w3.org/2000/svg">
<rect x="1.21997" y="1.66016" width="22" height="22" rx="11" stroke="white" stroke-width="2"/>
<path d="M10.4287 12.6327V18.3627C10.4287 18.4451 10.4954 18.512 10.5774 18.512H12.6975C12.7796 18.512 12.846 18.4451 12.846 18.3627V12.5394H14.3831C14.4602 12.5394 14.5246 12.4799 14.5311 12.4027L14.6789 10.6482C14.6864 10.5612 14.618 10.4863 14.5309 10.4863H12.846V9.24139C12.846 8.94982 13.0817 8.7133 13.3724 8.7133H14.5569C14.6392 8.7133 14.7056 8.64635 14.7056 8.56401V6.80944C14.7056 6.72687 14.6392 6.66016 14.5569 6.66016H12.5555C11.381 6.66016 10.4287 7.61582 10.4287 8.7947V10.4863H9.3687C9.28667 10.4863 9.21997 10.5532 9.21997 10.6356V12.3901C9.21997 12.4725 9.28667 12.5394 9.3687 12.5394H10.4287V12.6327Z" fill="white"/>
</svg>
