<svg width="102" height="42" viewBox="0 0 102 42" fill="none" xmlns="http://www.w3.org/2000/svg">
<path d="M77.0335 21.6692C77.5193 21.652 78.7156 21.8078 81.3079 21.9063C84.0207 22.0106 84.5591 19.8887 84.45 18.5758C81.6856 19.1782 81.0277 19.3331 78.641 19.3331C76.1347 19.3331 73.0499 20.0388 72.9925 22.2649C72.9351 24.4738 75.7971 24.9711 77.285 25.3918C77.6972 25.4903 77.8511 25.8259 77.5767 26.0459C76.9417 26.5603 75.5055 27.2364 75.3334 28.445C75.0933 30.1567 76.6329 31.4973 78.5893 31.4572C81.1932 31.4046 84.0666 30.2839 86.8301 26.9361C87.6085 25.9875 88.4844 24.3925 89.0285 23.6868C89.1595 23.4325 89.5315 23.311 89.6921 23.3283C90.1846 23.4382 90.8826 23.814 90.7908 24.3572C90.6474 25.1843 88.4155 27.769 89.9034 29.3238C90.8195 30.2772 93.1202 30.9714 94.9514 29.6241C96.6678 28.3638 96.0616 27.2144 95.3807 27.1264C94.894 27.069 93.5381 28.7921 92.4394 27.5605C91.529 26.5431 93.6921 24.4327 94.1271 23.6754C94.7506 22.5881 92.3246 21.7725 91.3062 20.4261C90.6474 19.5416 92.3533 16.8192 90.2181 16.102C89.52 15.8649 87.3627 17.1768 88.1296 20.9463C87.1514 24.6698 79.6833 31.1856 78.6869 28.5607C78.4469 27.9191 79.0875 26.8548 80.7992 26.4962C83.6258 25.9015 83.403 24.1382 82.0518 23.9584C79.9347 23.6811 79.3448 23.6811 76.8213 23.0854C75.8316 22.9821 75.866 21.6462 77.0335 21.6702V21.6692ZM36.2609 25.9665C35.582 26.6512 34.7988 27.6045 34.6965 28.3695C34.468 30.0305 35.3248 31.4964 37.438 31.4581C39.7062 31.417 40.4549 29.7732 44.2473 27.4678C45.3107 26.8223 46.6245 25.7322 47.1667 25.6471C47.378 25.6471 47.6812 25.7102 47.6582 26.109C47.3379 27.6217 46.984 28.6382 47.378 29.9339C47.6524 30.8404 48.8582 31.4113 49.7265 30.7553C51.1771 29.6594 51.1943 29.0369 53.0743 26.5718C53.3822 26.1606 54.5249 24.2883 55.0508 24.5398C55.4906 24.7454 55.3644 25.3555 55.285 25.8297C54.8901 28.141 53.8851 31.788 58.455 31.2286C59.5403 31.0976 60.4143 30.3613 59.5919 29.5849C59.0947 29.1163 58.5353 29.4539 57.907 29.3114C56.4383 28.9748 60.0662 22.2965 58.3354 21.0582C55.9018 19.3178 53.6451 22.4055 51.9545 24.6536C51.2861 25.5438 50.7946 25.1508 50.3605 23.9001C49.8805 22.5078 46.9841 23.5243 45.3222 24.3801C42.6715 25.7437 37.7756 30.3154 37.3242 28.0386C37.2439 27.6447 37.8836 26.7659 39.0722 26.3318C40.4655 25.824 42.048 25.3727 42.048 24.5341C42.048 23.8838 41.654 23.4267 41.2371 23.4497C39.2893 23.5577 37.0211 24.0712 34.4278 23.3579C33.8388 23.3522 33.5825 21.869 35.3362 22.0622C35.799 22.1138 36.8327 22.1827 40.7571 22.263C43.5225 22.3194 43.5789 20.253 43.2079 19.1514C40.9111 19.8371 39.7406 19.7567 37.307 19.7567C34.7529 19.7567 31.3201 20.1105 31.4625 22.5652C31.5888 24.6306 34.4909 25.2015 35.9931 25.3669C36.4387 25.3382 36.5698 25.7494 36.2609 25.9665Z" fill="#253858" stroke="#253858" stroke-width="1.15417" stroke-miterlimit="3.864"/>
<path fill-rule="evenodd" clip-rule="evenodd" d="M27.6156 20.3955C27.847 19.5215 28.3509 19.3245 29.0127 19.1677C29.9966 18.8378 31.3765 18.3979 32.2246 18.2421C34.3628 17.7028 34.9786 17.8309 35.2559 16.3134C35.4481 15.2596 35.0015 14.7557 35.0015 14.7557C35.0015 14.7557 30.3361 16.2503 29.4028 16.5161C28.5881 16.8747 28.7411 16.0007 28.7411 16.0007C28.7411 16.0007 28.6225 16.5562 29.1313 14.2929C30.6584 7.41374 29.7643 5.57873 28.5489 4.52975C25.4718 1.92498 14.2513 7.32194 6.22092 13.8119C3.54539 16.1919 1.99631 16.7475 3.7376 18.6523C5.28765 20.2396 6.29457 19.052 6.29457 19.052C7.77003 17.8596 10.9486 14.5243 13.0418 12.9379C16.0214 10.6793 20.1331 7.42043 23.7754 6.55122C26.6651 5.8044 27.5363 6.67266 27.1461 9.68383C26.9195 12.2723 24.9745 18.0967 24.9745 18.0967C24.9745 18.0967 21.9882 19.4641 21.1008 19.8046C20.4047 20.0713 19.6636 19.8858 19.5843 21.5133C19.5508 23.2556 20.5797 22.6015 21.2758 22.3357C21.8132 22.1263 23.0745 21.5191 23.544 21.3164C23.894 21.039 24.2784 21.2752 24.0862 21.7906C23.7362 22.9429 23.108 24.8075 21.9146 27.506C20.4047 31.1942 17.6899 36.2364 17.339 37.5053C17.3792 38.3391 18.2723 38.4548 19.4437 38.4721C20.5232 38.386 21.0215 37.621 21.0215 37.621C21.0215 37.621 22.4233 34.5353 24.5844 29.0915C26.1622 25.1374 27.1853 21.8719 27.6156 20.3955Z" fill="#253858" stroke="#253858" stroke-width="1.15417" stroke-miterlimit="3.864"/>
<path d="M67.2418 21.7899C65.5436 21.2955 64.0566 23.3237 63.6215 25.1319C63.2276 26.7805 63.4331 28.9932 64.9143 29.281C66.0982 29.5105 67.4761 28.4625 67.8309 26.5328C67.9217 26.0136 68.1445 24.3602 68.2076 23.9395C68.614 21.3127 68.9229 20.1662 68.9229 20.1662C70.341 14.687 73.7432 4.02793 74.6698 3.40543C75.6299 2.75997 78.2777 2.65001 77.4486 4.87419C76.1615 8.33096 74.6641 11.3966 73.3081 15.6605C71.7189 20.6615 68.6427 28.6872 71.3871 29.0448C72.6684 29.2112 73.1886 28.0188 73.9603 28.6241C75.1384 29.5516 73.8513 31.2279 71.5812 31.4526C68.4591 31.5673 68.528 29.7247 67.1443 30.5193C62.7064 33.06 59.9735 29.5057 60.8485 25.0573C61.5972 21.2429 64.5137 18.5521 67.7677 20.1997C67.7677 20.1997 68.6025 20.6156 68.5337 21.3299C68.4706 21.8712 68.0594 21.9792 67.2418 21.7899Z" fill="#253858" stroke="#253858" stroke-width="1.15417" stroke-miterlimit="3.864"/>
<path fill-rule="evenodd" clip-rule="evenodd" d="M96.7883 17.1025C97.102 17.1025 97.3324 17.1311 97.4807 17.1904C97.7407 17.2966 97.8708 17.5155 97.8708 17.834C97.8708 18.0577 97.7876 18.2231 97.6222 18.336C97.51 18.4029 97.3848 18.4453 97.255 18.4603C97.4568 18.489 97.5983 18.5712 97.693 18.707C97.7781 18.8196 97.8259 18.956 97.8297 19.0971V19.2788C97.8297 19.3391 97.8297 19.4031 97.8354 19.4682C97.8353 19.5126 97.8434 19.5567 97.8593 19.5982L97.8765 19.6279H97.4568C97.4568 19.6221 97.451 19.6097 97.451 19.6039C97.451 19.5982 97.4443 19.5867 97.4443 19.5753L97.4329 19.4921V19.2913C97.4329 18.9967 97.3563 18.8074 97.1967 18.7127C97.102 18.6601 96.9356 18.6305 96.6995 18.6305H96.3447V19.6279H95.8943V17.0958H96.7883V17.1025ZM97.2674 17.5041C97.1546 17.4381 96.9777 17.4084 96.729 17.4084H96.3504V18.3236H96.753C96.9423 18.3236 97.0838 18.3063 97.1785 18.2643C97.2588 18.2356 97.3277 18.1815 97.3746 18.1103C97.4215 18.0391 97.444 17.9545 97.4386 17.8693C97.4386 17.6867 97.3793 17.5691 97.2674 17.5041ZM98.4685 20.0113C98.019 20.4655 97.474 20.6902 96.8295 20.6902C96.5251 20.696 96.2228 20.6387 95.9417 20.5219C95.6606 20.405 95.4068 20.2312 95.1962 20.0113C94.9791 19.7988 94.8077 19.5442 94.6927 19.2629C94.5778 18.9817 94.5216 18.6799 94.5278 18.3761C94.5278 17.7393 94.7526 17.2029 95.203 16.7477C95.414 16.5307 95.6671 16.3592 95.9468 16.2436C96.2265 16.128 96.5269 16.0708 96.8295 16.0755C97.4682 16.0755 98.0123 16.2992 98.4685 16.7477C98.9179 17.1971 99.1426 17.7393 99.1426 18.3771C99.1483 19.014 98.9179 19.5561 98.4685 20.0113ZM95.4277 16.9724C95.2406 17.1549 95.0926 17.3735 94.9928 17.615C94.8931 17.8565 94.8435 18.1158 94.8472 18.3771C94.8472 18.9317 95.0432 19.3974 95.4209 19.7875C95.6032 19.9762 95.8223 20.1253 96.0646 20.2256C96.3069 20.326 96.5673 20.3754 96.8295 20.3708C97.0916 20.3748 97.3518 20.3251 97.5941 20.2248C97.8363 20.1245 98.0554 19.9757 98.238 19.7875C98.4248 19.6037 98.5724 19.384 98.672 19.1416C98.7716 18.8992 98.8211 18.6391 98.8175 18.3771C98.8175 17.8282 98.6224 17.3616 98.238 16.9714C98.0554 16.7833 97.8363 16.6345 97.5941 16.5342C97.3518 16.4339 97.0916 16.3842 96.8295 16.3881C96.2854 16.3881 95.8178 16.5842 95.4277 16.9724Z" fill="#253858"/>
</svg>
