<svg width="94" height="32" viewBox="0 0 94 32" fill="none" xmlns="http://www.w3.org/2000/svg">
<path d="M93.0648 30.5081C92.5313 27.9033 91.9977 25.2985 91.466 22.6928L89.6004 13.578L87.8065 4.80557L87.076 1.23119C87.0578 1.1413 87.0482 1.06576 86.9134 1.06672C84.9101 1.07437 82.9059 1.06959 80.9026 1.08106C80.2389 1.08489 79.5954 1.21015 78.9958 1.51806C78.1582 1.95027 77.6552 2.67318 77.3033 3.53092L66.2302 30.487C66.2063 30.5453 66.1623 30.6018 66.1757 30.6783C66.2063 30.6783 66.2369 30.683 66.2665 30.683C68.8082 30.683 71.3498 30.684 73.8896 30.6859C74.012 30.6859 74.0502 30.6352 74.0875 30.5301C74.5714 29.154 75.0629 27.7809 75.5448 26.4049C75.5897 26.2787 75.6471 26.2423 75.7762 26.2423C78.8782 26.2461 81.9802 26.2461 85.0841 26.2423C85.2046 26.2423 85.2572 26.2624 85.285 26.4011C85.5546 27.7752 85.8348 29.1473 86.1111 30.5195C86.1303 30.6094 86.135 30.6859 86.2699 30.6859C88.5457 30.6802 90.8215 30.6783 93.0973 30.6792V30.5683C93.0838 30.5497 93.0735 30.5294 93.0648 30.5081ZM83.8841 20.1923C81.875 20.1894 79.866 20.1884 77.857 20.1903C77.8303 20.1879 77.8038 20.1837 77.7776 20.1779C79.0962 16.4869 80.4646 12.8245 81.7555 9.078C81.832 9.44137 81.9009 9.75693 81.9649 10.0754C82.6381 13.403 83.3122 16.7288 83.9874 20.0555C84.0084 20.1645 83.9969 20.1923 83.8841 20.1923ZM66.6031 19.695C66.3488 18.1115 65.5799 16.8082 64.4678 15.6999C63.3644 14.6002 62.0648 13.7932 60.6946 13.0932C59.6599 12.5654 58.6195 12.0471 57.6547 11.3911C57.2818 11.1368 56.9308 10.8566 56.6411 10.5066C56.01 9.74832 56.01 8.8313 56.6411 8.07205C56.9022 7.76319 57.2225 7.5117 57.582 7.33289C58.3623 6.93032 59.2038 6.79071 60.0654 6.74672C62.2743 6.6358 64.3847 7.04698 66.388 8.01085C66.5094 8.06823 66.6337 8.12178 66.7618 8.17915C66.7781 8.10265 66.7915 8.05006 66.7982 7.9946C67.1176 5.9913 67.4322 3.988 67.7592 1.98661C67.7869 1.81927 67.741 1.76476 67.6014 1.71313C65.9962 1.10707 64.3136 0.730123 62.6032 0.593385C62.4339 0.579041 62.257 0.604859 62.0964 0.530273H59.9219C59.9085 0.582866 59.8646 0.564697 59.834 0.567566C59.1168 0.60964 58.4034 0.696657 57.6968 0.825748C55.8035 1.17955 54.0182 1.81736 52.4155 2.92658C50.7029 4.11135 49.4321 5.65471 48.7876 7.68574C48.3955 8.92118 48.2626 10.1872 48.4625 11.4753C48.6872 12.9364 49.39 14.1508 50.3816 15.2027C51.4096 16.2928 52.6336 17.1075 53.9273 17.8227C54.7325 18.2664 55.5701 18.647 56.3657 19.1136C57.0532 19.5162 57.7264 19.936 58.261 20.5461C59.0135 21.4038 59.0518 22.5551 58.3595 23.4473C58.1237 23.7446 57.8336 23.9944 57.5046 24.1836C56.7779 24.6167 55.9813 24.8434 55.1503 24.9055C53.455 25.0346 51.7749 24.9055 50.1282 24.4523C48.8727 24.1051 47.6879 23.5754 46.5185 23.0084C46.4515 22.9749 46.3884 22.9242 46.3014 22.9261L46.2182 23.4626C45.9027 25.4544 45.5871 27.4453 45.2696 29.4361C45.2553 29.5298 45.2744 29.569 45.3566 29.6006C45.5814 29.6867 45.8013 29.788 46.0289 29.8683C48.3286 30.684 50.7087 31.0321 53.1279 31.1181C54.4858 31.165 55.8455 31.0684 57.1842 30.8313C58.8777 30.5329 60.4976 30.0137 61.9883 29.1263C64.1313 27.8488 65.6603 26.0568 66.3478 23.5878C66.7045 22.3122 66.8116 21.0098 66.6021 19.696L66.6031 19.695ZM34.4862 1.07245C31.9867 1.07245 29.488 1.07054 26.9884 1.06767C26.824 1.06767 26.7542 1.11166 26.6939 1.27518C24.3005 7.86359 21.9023 14.4501 19.4993 21.0347C19.4782 21.0921 19.483 21.1714 19.4036 21.202L19.1015 19.6625C18.9303 18.8009 18.7591 17.9394 18.5851 17.0797C18.5889 17.0424 18.5928 17.0032 18.5583 16.9745C18.5526 16.9153 18.5497 16.8541 18.5392 16.7948L17.5734 11.7698C17.0446 9.03593 16.5263 6.29729 15.9813 3.56534C15.7461 2.38249 15.0652 1.58213 13.8948 1.25988C13.4167 1.13174 12.9252 1.06863 12.4318 1.07245H0.717004C0.6992 1.07424 0.68126 1.07424 0.663456 1.07245C0.519065 1.04186 0.476035 1.12792 0.455954 1.25223C0.439698 1.35932 0.436829 1.4712 0.376587 1.56683V1.67775C1.42844 1.93593 2.45639 2.27826 3.47668 2.64641C4.29139 2.94284 5.09175 3.27752 5.87395 3.65045C6.69631 4.03485 7.49954 4.4642 8.27791 4.93467C8.28173 4.95092 8.27791 4.9777 8.30564 4.97196C8.28652 5.03411 8.3152 5.08957 8.32955 5.14599L11.4975 17.3322C12.6354 21.7079 13.7734 26.0845 14.9084 30.4612C14.9486 30.618 15.0098 30.6601 15.1618 30.6591C17.6786 30.6544 20.1963 30.6544 22.7131 30.6591C22.8499 30.6591 22.9235 30.6305 22.979 30.487C26.8613 20.7507 30.7445 11.0163 34.6306 1.28283C34.7138 1.07246 34.7138 1.07245 34.4843 1.07245H34.4862ZM45.0621 1.06576C44.1155 1.0715 43.1678 1.06863 42.2202 1.06863H37.9095C37.8158 1.06863 37.7355 1.06002 37.7183 1.19677C37.6791 1.50754 37.6236 1.8164 37.5739 2.12622C37.1818 4.59616 36.7917 7.06705 36.4006 9.53699C36.0692 11.6249 35.7367 13.7127 35.4033 15.8003C34.6341 20.6997 33.8567 25.5979 33.071 30.4947C33.0404 30.6859 33.1035 30.6859 33.2451 30.685C34.4279 30.6802 35.6108 30.6821 36.7946 30.6821H40.3976C40.5105 30.6821 40.564 30.6639 40.5841 30.531C40.6989 29.7526 40.8241 28.9762 40.9465 28.1988C42.371 19.216 43.7971 10.2335 45.2247 1.25127C45.2553 1.07532 45.2037 1.06576 45.0621 1.06672V1.06576Z" fill="#172B4D"/>
</svg>
