<svg width="126" height="30" viewBox="0 0 126 30" fill="none" xmlns="http://www.w3.org/2000/svg">
<path fill-rule="evenodd" clip-rule="evenodd" d="M46.7986 8.73859C47.9834 9.94928 48.787 11.481 49.1098 13.1439C49.4358 14.8122 49.2689 16.5393 48.6298 18.1144C47.9955 19.6793 46.9134 21.0222 45.5192 21.9747C44.1362 22.9184 42.5012 23.4238 40.827 23.4253C39.1527 23.4238 37.5177 22.9184 36.1348 21.9747C34.7405 21.0224 33.6587 19.6795 33.0251 18.1144C32.3852 16.5395 32.218 14.8123 32.5441 13.1439C32.8669 11.481 33.6705 9.94928 34.8553 8.73859C35.6359 7.94091 36.5671 7.30614 37.5949 6.87108C38.6177 6.43858 39.7169 6.21574 40.8274 6.21574C41.9379 6.21574 43.0371 6.43858 44.06 6.87108C45.0875 7.30616 46.0184 7.94094 46.7986 8.73859ZM40.827 0.486335C42.6848 0.490303 44.5232 0.864795 46.2346 1.58789C47.946 2.31099 49.4959 3.36817 50.7937 4.69757C53.4452 7.41288 54.9266 11.0595 54.9198 14.8546C54.9243 18.6492 53.4413 22.2943 50.789 25.0079C49.4903 26.3366 47.9397 27.393 46.2278 28.1153C44.516 28.8376 42.6773 29.2112 40.8193 29.2143C37.0805 29.2143 33.4946 27.7016 30.8506 25.0088C28.1972 22.2951 26.7137 18.6491 26.7187 14.8537C26.7122 11.0588 28.1936 7.41264 30.8449 4.69757C32.1427 3.36817 33.6927 2.31099 35.4041 1.58789C37.1154 0.864795 38.9538 0.490303 40.8117 0.486335H40.827ZM76.3327 8.73859C77.5179 9.94901 78.3215 11.4808 78.6439 13.1439C78.9698 14.8122 78.8031 16.5393 78.1639 18.1144C77.5296 19.6793 76.4475 21.0222 75.0533 21.9747C73.6704 22.9185 72.0353 23.424 70.361 23.4253C68.6871 23.4239 67.0524 22.9184 65.6698 21.9747C64.275 21.0227 63.1928 19.6797 62.5592 18.1144C61.9192 16.5395 61.7521 14.8123 62.0782 13.1439C62.401 11.481 63.2046 9.94928 64.3894 8.73859C65.17 7.94091 66.1012 7.30614 67.129 6.87108C68.1518 6.43858 69.251 6.21574 70.3615 6.21574C71.472 6.21574 72.5713 6.43858 73.5941 6.87108C74.6216 7.30616 75.5524 7.94094 76.3327 8.73859ZM80.3144 4.68418C82.6261 7.04571 84.0591 10.1279 84.3746 13.4174C84.6974 16.7133 83.8861 20.0208 82.0749 22.7932C80.2832 25.541 77.59 27.5786 74.4585 28.5555C71.3434 29.5212 67.9874 29.3559 64.9823 28.0888C61.957 26.8075 59.4705 24.5156 57.9473 21.6047C56.408 18.6701 55.9143 15.2989 56.5474 12.0462C57.1714 8.80491 58.8904 5.87657 61.4165 3.75186C63.9176 1.64945 67.0784 0.493517 70.3458 0.486335C72.1984 0.484432 74.0326 0.854133 75.7398 1.57357C77.4554 2.2973 79.0103 3.35522 80.3144 4.68418ZM5.64539 29.0776L7.04912 29.157H28.1589L28.0814 27.7264C27.8959 25.3684 26.2454 23.6395 23.9304 23.498L22.5266 23.4196H9.87287L26.7542 6.22371L26.6776 4.79319C26.5696 2.41983 24.856 0.690969 22.5266 0.564747L21.122 0.501636H0.0131836L0.0896983 1.93215C0.275207 4.25866 1.94192 6.01908 4.24069 6.1606L5.64539 6.23901H18.3135L1.41694 23.4205L1.49439 24.8501C1.63305 27.2082 3.31506 28.9208 5.64539 29.0776ZM101.979 9.08284C102.457 9.93292 102.612 10.8758 102.673 11.9601L102.75 13.3906V23.4196L102.828 24.8491C102.967 27.1919 104.664 28.9361 106.978 29.0776L108.383 29.157V13.3916L108.459 11.9611C108.521 10.892 108.66 9.91762 109.154 9.06849C109.648 8.20478 110.359 7.48591 111.218 6.98391C112.07 6.48548 113.04 6.22339 114.027 6.22467C115.014 6.22665 115.983 6.4917 116.834 6.99252C117.691 7.49787 118.4 8.21933 118.891 9.08475C119.369 9.93388 119.524 10.9083 119.57 11.9458L119.647 13.3753V23.4205L119.724 24.8501C119.863 27.2082 121.545 28.937 123.875 29.0785L125.279 29.1579V11.9611C125.28 9.63871 124.584 7.36943 123.283 5.4463C121.993 3.53962 120.151 2.07286 118.004 1.24271C115.87 0.420188 113.533 0.27987 111.315 0.841097C109.089 1.40804 107.09 2.64506 105.589 4.38488C103.794 2.30208 101.295 0.952562 98.5689 0.593433C95.8488 0.242006 93.0949 0.909616 90.8377 2.46764C89.7419 1.22454 87.2892 0.501636 85.8845 0.501636V29.1732L87.2892 29.0948C89.6338 28.937 91.3474 27.2397 91.4392 24.8664L91.5167 23.4358V13.4069L91.5941 11.9764C91.6553 10.892 91.7949 9.94918 92.2884 9.10005C92.7783 8.23589 93.4874 7.51621 94.3442 7.01356C95.1946 6.51486 96.1631 6.25303 97.1489 6.25527C98.1295 6.24951 99.0934 6.50851 99.9391 7.00495C100.791 7.50519 101.495 8.22297 101.979 9.08475V9.08284Z" fill="#253858"/>
</svg>
