<svg width="156" height="22" viewBox="0 0 156 22" fill="none" xmlns="http://www.w3.org/2000/svg">
<path d="M78.1875 0.833008H77.4503V21.8701H78.1875V0.833008ZM64.3136 6.2357H61.071V16.7102H64.3136C67.7675 16.7102 69.9812 14.6104 69.9812 11.4825C69.9812 8.35566 67.7675 6.25579 64.3136 6.25579V6.2357ZM64.2074 15.4413H62.5713V7.54287H64.2074C67.1134 7.54287 68.4636 9.16559 68.4636 11.4921C68.4636 13.8176 67.1134 15.4413 64.2074 15.4413ZM53.2337 13.5336L46.1768 5.95649V16.6787H47.5681V9.44672L54.6222 17.021V6.27587H53.2337V13.5336ZM0.52832 11.5007C0.52832 14.64 2.73912 16.7275 6.19589 16.7275H10.0457V11.2942H8.55682V15.4212H6.30206C3.39608 15.4212 2.04589 13.8205 2.04589 11.472C2.04589 9.1216 3.39608 7.52183 6.30206 7.52183H10.0457V6.2357H6.19589C2.73912 6.2357 0.52832 8.33176 0.52832 11.4625V11.5007ZM24.7276 9.4209C24.7276 7.09726 23.1068 6.24431 20.2859 6.24431H17.0644V16.7188H18.5379V7.52183H20.2267C22.3964 7.52183 23.2158 7.90815 23.2215 9.4123C23.2215 10.9164 22.3964 11.3028 20.2267 11.3028H19.2217L23.6662 16.7016H25.5414C25.5414 16.7016 21.8742 12.4732 21.9039 12.4703C23.7169 12.1624 24.7247 11.2416 24.7305 9.4123L24.7276 9.4209ZM30.7404 16.7045H32.191L33.326 14.2298H38.0747L39.1887 16.7045H40.7445L35.7338 5.91345L30.7404 16.7045ZM34.0183 12.7199L35.7252 9.02024L37.4024 12.7285L34.0183 12.7199ZM128.27 7.33919H132.157V16.5917H133.667V7.33919H137.449V6.0435H128.27V7.33919ZM142.48 6.0435V7.33919H146.397V16.5917H147.906V7.33919H151.862V6.0435H142.48ZM105.365 11.4166L101.85 6.04063H100.186L104.578 12.935V16.5945H106.081V12.8939L110.384 6.04063H108.772L105.365 11.4166ZM113.7 16.5917H115.174L116.374 14.2336H121.793L122.973 16.5917H124.544L119.121 5.66675L113.7 16.5917ZM117.128 12.7237L119.103 8.83187L121.039 12.7237H117.128ZM93.2108 10.9145H87.5433V6.04732H86.0372V16.6012H87.5433V12.2121H93.2108V16.6012H94.7207V6.04732H93.2108V10.9145ZM154.397 6.04924C154.259 6.04183 154.122 6.06213 153.992 6.10895C153.863 6.15576 153.744 6.22813 153.643 6.32177C153.493 6.4622 153.39 6.64544 153.348 6.84652C153.306 7.04759 153.327 7.2567 153.408 7.44533C153.463 7.5714 153.543 7.68486 153.643 7.77864C153.744 7.87242 153.862 7.9445 153.992 7.99038C154.121 8.03628 154.259 8.05732 154.397 8.04967C154.535 8.05708 154.672 8.03678 154.802 7.98996C154.932 7.94315 155.05 7.87078 155.152 7.77715C155.251 7.68398 155.331 7.57134 155.386 7.44618C155.44 7.32102 155.469 7.186 155.469 7.04945C155.469 6.91299 155.441 6.77802 155.386 6.65297C155.331 6.52792 155.252 6.41549 155.152 6.32272C155.051 6.22841 154.932 6.15554 154.802 6.10853C154.673 6.06152 154.535 6.04135 154.397 6.04924ZM154.397 7.87564C154.232 7.87414 154.071 7.82428 153.933 7.7322C153.797 7.64069 153.691 7.51091 153.629 7.35927C153.567 7.20785 153.553 7.04131 153.587 6.88133C153.621 6.72136 153.702 6.57536 153.82 6.46233C153.939 6.34705 154.089 6.26939 154.252 6.23911C154.414 6.20883 154.582 6.22727 154.735 6.29212C154.886 6.35561 155.014 6.46228 155.105 6.59871C155.195 6.73515 155.244 6.89529 155.243 7.05902C155.249 7.22539 155.202 7.38933 155.109 7.52718C155.016 7.66504 154.881 7.76965 154.724 7.82591C154.62 7.8647 154.508 7.88163 154.397 7.87564Z" fill="#172B4D"/>
</svg>
