<svg width="172" height="32" viewBox="0 0 172 32" fill="none" xmlns="http://www.w3.org/2000/svg">
<path d="M34.9161 9.07227C28.694 9.07227 23.8315 13.796 23.8315 20.1196C23.8315 26.4431 28.5706 31.1258 34.9161 31.1258C41.2617 31.1258 46.083 26.3628 46.083 20.0794C46.083 13.797 41.3439 9.07227 34.9161 9.07227ZM34.9582 26.5693C31.4144 26.5693 28.8183 23.8173 28.8183 20.1215C28.8183 16.4257 31.3723 13.6325 34.9161 13.6325C38.4599 13.6325 41.0962 16.4247 41.0962 20.1215C41.0962 23.8173 38.5001 26.5693 34.9563 26.5693H34.9582ZM47.4437 13.8783H50.5342V30.7175H55.4789V9.48345H47.4437V13.8783ZM11.39 13.6325C13.9862 13.6325 16.0459 15.2342 16.8281 17.6162H22.0625C21.1139 12.5243 16.9113 9.07418 11.4311 9.07418C5.20801 9.07227 0.345581 13.796 0.345581 20.1215C0.345581 26.446 5.08465 31.1277 11.4302 31.1277C16.786 31.1277 21.0719 27.6776 22.0204 22.5436H16.8281C16.087 24.9256 14.0263 26.5693 11.4302 26.5693C7.84433 26.5693 5.33231 23.8173 5.33231 20.1215C5.33231 16.4257 7.80417 13.6325 11.39 13.6325ZM141.39 18.0694L137.764 17.5359C136.034 17.2901 134.797 16.7145 134.797 15.3585C134.797 13.8802 136.406 13.142 138.589 13.142C140.978 13.142 142.503 14.168 142.833 15.8519H147.613C147.076 11.5805 143.78 9.07609 138.713 9.07609C133.646 9.07609 130.018 11.7449 130.018 15.5239C130.018 19.3011 132.285 21.2326 136.858 21.8896L140.484 22.4222C142.256 22.6679 143.245 23.3679 143.245 24.6818C143.245 26.3647 141.515 27.0637 139.125 27.0637C136.199 27.0637 134.55 25.8723 134.303 24.0659H129.441C129.896 28.2141 133.15 31.1296 139.083 31.1296C144.481 31.1296 148.065 28.6654 148.065 24.4341C148.065 20.657 145.469 18.6843 141.39 18.0694ZM53.0051 0.735863C51.1921 0.735863 49.8314 2.04972 49.8314 3.85604C49.8314 5.66331 51.1902 6.97621 53.0051 6.97621C54.8191 6.97621 56.1789 5.66331 56.1789 3.85604C56.1789 2.04877 54.8181 0.735863 53.0051 0.735863ZM125.567 16.7527C125.567 12.1542 122.765 9.07418 116.832 9.07418C111.228 9.07418 108.096 11.9084 107.478 16.2622H112.381C112.629 14.5792 113.948 13.1821 116.749 13.1821C119.263 13.1821 120.5 14.2914 120.5 15.6463C120.5 17.4125 118.232 17.8638 115.431 18.1517C111.64 18.5619 106.942 19.8757 106.942 24.8041C106.942 28.6243 109.786 31.0875 114.319 31.0875C117.862 31.0875 120.087 29.6092 121.201 27.2674C121.365 29.3615 122.931 30.7175 125.115 30.7175H128V26.3236H125.568V16.7537L125.567 16.7527ZM120.704 22.0932C120.704 24.9275 118.232 27.0216 115.224 27.0216C113.369 27.0216 111.803 26.2414 111.803 24.5995C111.803 22.5054 114.318 21.9297 116.625 21.684C118.849 21.4784 120.086 20.9859 120.704 20.0402V22.0932ZM94.4567 9.07418C91.6961 9.07418 89.3887 10.2245 87.7402 12.1542V0.530273H82.7955V30.7184H87.6579V27.9253C89.3055 29.9372 91.655 31.1287 94.4567 31.1287C100.39 31.1287 104.882 26.446 104.882 20.1215C104.882 13.796 100.308 9.07418 94.4567 9.07418ZM93.7156 26.5703C90.1718 26.5703 87.5757 23.8192 87.5757 20.1225C87.5757 16.4266 90.212 13.6344 93.7558 13.6344C97.2996 13.6344 99.8537 16.3865 99.8537 20.1225C99.8537 23.8594 97.2575 26.5713 93.7137 26.5713L93.7156 26.5703ZM70.9698 9.07322C67.7559 9.07322 65.6541 10.3871 64.4177 12.2364V9.4844H59.5132V30.7184H64.4579V19.1767C64.4579 15.9323 66.5186 13.6325 69.567 13.6325C72.4108 13.6325 74.1818 15.6444 74.1818 18.5609V30.7184H79.1264V18.1918C79.1264 12.8522 76.3648 9.07322 70.9679 9.07322H70.9698ZM171.632 19.4225C171.632 13.3447 167.182 9.07322 161.206 9.07322C154.862 9.07322 150.205 13.8372 150.205 20.1205C150.205 26.7338 155.191 31.1267 161.289 31.1267C166.441 31.1267 170.478 28.0878 171.508 23.7762H166.357C165.615 25.6657 163.801 26.7338 161.37 26.7338C158.196 26.7338 155.806 24.7621 155.272 21.312H171.63V19.4225H171.632ZM155.563 17.7787C156.346 14.8221 158.571 13.3849 161.126 13.3849C163.928 13.3849 166.071 14.9865 166.565 17.7787H155.563Z" fill="#253858"/>
</svg>
