<svg width="87" height="56" viewBox="0 0 87 56" fill="none" xmlns="http://www.w3.org/2000/svg">
<path fill-rule="evenodd" clip-rule="evenodd" d="M0.881104 53.849C0.881104 53.849 1.954 54.2382 3.15693 54.2382C4.45741 54.2382 5.23673 54.0441 5.6919 53.5879C6.04953 53.2313 6.2121 52.6126 6.17958 51.6707V45.5594H8.09776V51.9643C8.06525 54.7918 6.70071 55.9948 3.51456 55.9948C1.95399 55.9948 0.881104 55.7347 0.881104 55.7347V53.849ZM13.6888 47.4126C16.744 47.4126 18.5322 49.0382 18.5322 51.7682C18.5322 53.7189 17.2642 55.9948 13.6888 55.9948C10.1126 55.9948 8.81304 53.7189 8.81304 51.7682C8.81208 49.0382 10.6327 47.4126 13.6888 47.4126ZM16.6465 51.6717C16.6465 50.0135 15.5745 49.0707 13.6888 49.0707C11.8022 49.0707 10.6987 50.0145 10.6987 51.6717C10.6987 53.979 12.5834 54.3051 13.6888 54.3051C14.7933 54.3051 16.6465 53.9781 16.6465 51.6717ZM26.1705 47.6077V50.8589H21.2622V47.6077H19.3775V55.7997H21.2622V52.516H26.1705V55.7997H28.0887V47.6077H26.1705ZM54.712 54.1091V52.516H59.0677V50.8579H54.712V49.2648H60.3356V47.6086H52.7938V55.8006H60.3356V54.11L54.712 54.1091ZM63.2292 54.1091V52.516H67.5848V50.8579H63.2292V49.2648H68.8853V47.6086H61.3435V55.8006H68.8853V54.11L63.2292 54.1091ZM81.1078 54.1091V52.516H85.4634V50.8579H81.1078V49.2648H86.7639V47.6086H79.2211V55.8006H86.7639V54.11L81.1078 54.1091ZM46.325 47.2501C48.7959 47.2501 50.2264 48.4845 50.2264 50.6303C50.2264 53.6539 47.7889 54.1091 46.325 54.1091H43.6265V47.2501H46.325ZM46.325 45.5594H41.7417V55.7997H46.325C50.6165 55.7997 52.1111 53.0687 52.1111 50.7604C52.1111 47.5092 49.9338 45.5585 46.325 45.5585V45.5594ZM76.231 52.6786C77.694 52.3219 78.2133 51.2155 78.2133 50.2402C78.2133 48.5821 77.1413 47.6077 75.2891 47.6077H69.9256V55.7987H71.8104V52.8077H74.0537L76.3295 55.7987H78.6378L76.231 52.6786ZM71.8104 51.119V49.2648H75.2891C75.9384 49.2648 76.3295 49.6234 76.3295 50.1752C76.3295 50.988 75.6793 51.119 75.2891 51.119H71.8104ZM36.0531 55.7997L31.1113 50.2077V55.7997H29.2266V47.6077H31.1113L36.0531 53.1347V47.6077H37.9388V55.7997H36.0531ZM61.8226 3.95199C56.4256 1.46102 50.3172 0.155762 44.1486 0.155762C37.9799 0.155762 31.9308 1.46102 26.4746 3.95199C24.696 8.57727 23.7465 13.4407 23.7465 18.3633C23.7465 23.286 24.696 28.2087 26.4746 32.8349C31.9308 35.3249 38.0402 36.6292 44.1486 36.6292C50.2579 36.6292 56.3663 35.3259 61.8226 32.8349C60.6378 30.6996 58.798 28.8015 58.6804 28.7422C58.4432 28.6829 53.6391 27.1998 51.9782 26.3708C50.6136 25.6584 49.25 23.9974 49.0722 23.8196C47.7494 23.6918 46.4165 23.7117 45.0981 23.8789C43.3788 24.117 41.54 24.4134 39.7604 24.117C38.7526 23.9984 37.7437 23.6427 36.6766 23.3453C35.1351 22.8117 33.4742 22.2781 31.6354 22.2781C31.8725 22.7524 33.4742 25.7177 35.728 26.4301C35.728 26.4301 36.4394 26.6079 36.6766 26.7858L37.6252 28.6246C37.6252 28.6246 32.5849 26.1336 29.2629 22.041L29.1444 21.2703C31.1611 20.4995 33.237 20.3217 35.313 20.1438C35.313 20.1438 35.7873 20.0845 35.8466 20.0845C36.144 17.6519 36.7952 15.5176 37.7447 13.5602C37.9225 13.323 37.6271 13.2638 37.6271 13.2638C36.8554 13.0868 34.8387 12.6709 34.8387 12.6709L34.5432 11.8409C36.559 11.0692 39.0499 10.4171 40.6507 10.0623C40.8878 9.70562 41.0064 9.34991 41.0064 9.11276C41.0121 9.00267 40.9938 8.89265 40.9529 8.7903C40.912 8.68794 40.8493 8.59569 40.7692 8.5199C39.9985 7.57132 36.9137 7.86679 33.5937 9.11276L33.5335 9.05347C34.068 8.57823 35.0175 8.04465 35.7873 7.68894C35.5501 6.68011 34.2458 6.26607 34.2458 6.26607V6.14654C35.3723 6.26511 36.2033 6.7394 36.6183 7.33226C37.5085 7.09607 37.9235 6.9775 38.6349 6.91822C38.5757 5.43606 37.0926 4.367 37.0926 4.367L37.1528 4.30867C38.5164 4.78296 39.5242 5.73153 39.8799 6.91917C40.4234 6.90609 40.9651 6.98597 41.4817 7.15536C41.6595 6.74036 41.7178 6.26607 41.7178 5.85011C41.7178 4.42724 40.7702 3.36009 40.71 3.3008L40.8295 3.24056C42.5498 4.12985 42.9648 5.61296 42.9648 6.9775C42.9648 8.22347 42.6081 9.34895 42.4895 9.64634C42.4895 9.64634 44.4469 9.29158 45.9291 9.11276C45.8698 9.23133 45.2176 10.1206 43.439 11.0702L42.0152 10.8923C41.8966 11.2471 41.0666 13.8566 41.0666 15.815C41.0666 16.4671 41.2445 17.06 41.6595 17.4157C42.3709 18.0688 43.5576 18.1271 44.3283 18.1271C49.9634 17.89 52.3941 18.6617 52.7508 18.8395C52.8101 18.721 52.8684 18.4245 52.8684 18.0095C52.8684 17.1786 52.6313 15.8743 51.327 14.2726L51.3863 14.2133C51.4456 14.2133 54.7675 15.9919 55.1815 18.7793L53.6994 19.3731C55.0046 20.7376 55.478 22.3977 55.8337 23.7622C56.1311 24.7117 56.3673 25.5408 56.8425 25.9567C57.4354 26.4903 59.8087 27.7353 59.8671 27.7353C59.8671 27.7353 60.5785 28.6246 62.2978 31.5918C63.7943 27.3428 64.5564 22.8701 64.5516 18.3652C64.5516 13.4426 63.603 8.57918 61.8245 3.9539L61.8226 3.95199Z" fill="#253858"/>
</svg>
