<svg width="20" height="25" viewBox="0 0 20 25" fill="none" xmlns="http://www.w3.org/2000/svg">
<g clip-path="url(#clip0_38_224)">
<path d="M1.86812 13.5328C2.24365 16.7941 4.69906 19.4536 7.93275 20.2617C6.55009 18.2656 5.71039 15.9558 5.50246 13.5328H1.86812ZM1.86812 11.7873H5.50008C5.70391 9.37582 6.54464 7.06101 7.93246 5.05845C4.69892 5.86672 2.24364 8.52616 1.86812 11.7873ZM18.1319 11.7873C17.7563 8.52606 15.3009 5.86657 12.0672 5.05838C13.4499 7.05448 14.2896 9.36431 14.4975 11.7873H18.1319ZM18.1319 13.5328H14.4999C14.2961 15.9443 13.4554 18.2591 12.0675 20.2617C15.3011 19.4534 17.7564 16.794 18.1319 13.5328ZM7.32252 11.7873H12.6749C12.4466 9.41946 11.5179 7.16354 9.99998 5.28618C8.47636 7.17029 7.54642 9.43327 7.32252 11.7873ZM12.6775 13.5328H7.32508C7.55344 15.9007 8.48212 18.1566 10 20.0339C11.5236 18.1498 12.4536 15.8868 12.6775 13.5328ZM10 22.2601C4.47715 22.2601 0 17.962 0 12.6601C0 7.35813 4.47715 3.06006 10 3.06006C15.5228 3.06006 20 7.35813 20 12.6601C20 17.962 15.5228 22.2601 10 22.2601Z" fill="white"/>
</g>
<defs>
<clipPath id="clip0_38_224">
<rect width="20" height="19.2" fill="white" transform="translate(0 3.06006)"/>
</clipPath>
</defs>
</svg>
