<svg width="25" height="25" viewBox="0 0 25 25" fill="none" xmlns="http://www.w3.org/2000/svg">
<rect x="1.96997" y="1.66016" width="22" height="22" rx="11" stroke="white" stroke-width="2"/>
<path d="M12.9224 9.66727C14.5258 9.66727 15.8304 10.9767 15.8304 12.5861C15.8304 14.1955 14.5258 15.5049 12.9224 15.5049C11.319 15.5049 10.0146 14.1955 10.0146 12.5861C10.0146 10.9767 11.319 9.66727 12.9224 9.66727ZM12.9224 10.7165C11.8953 10.7165 11.0597 11.5552 11.0597 12.5861C11.0597 13.617 11.8953 14.4557 12.9224 14.4557C13.9497 14.4557 14.7851 13.617 14.7851 12.5861C14.7851 11.5552 13.9497 10.7165 12.9224 10.7165ZM16.0001 8.7764C16.3823 8.7764 16.6922 9.08748 16.6922 9.47104C16.6922 9.85481 16.3823 10.1659 16.0001 10.1659C15.6178 10.1659 15.3078 9.85481 15.3078 9.47104C15.3078 9.08748 15.6178 8.7764 16.0001 8.7764ZM10.5167 7.77514C9.17347 7.77514 8.08083 8.87184 8.08083 10.2201V14.9521C8.08083 16.3003 9.17347 17.397 10.5167 17.397H15.231C16.5742 17.397 17.6671 16.3003 17.6671 14.9521V10.2201C17.6671 8.87184 16.5742 7.77514 15.231 7.77514H10.5167ZM15.231 18.512H10.5167C8.56116 18.512 6.96997 16.9151 6.96997 14.9521V10.2201C6.96997 8.25704 8.56116 6.66016 10.5167 6.66016H15.231C17.1867 6.66016 18.7779 8.25704 18.7779 10.2201V14.9521C18.7779 16.9151 17.1867 18.512 15.231 18.512Z" fill="white"/>
</svg>
