<svg width="25" height="25" viewBox="0 0 25 25" fill="none" xmlns="http://www.w3.org/2000/svg">
<rect x="1.46997" y="1.66016" width="22" height="22" rx="11" stroke="white" stroke-width="2"/>
<path d="M8.99316 17.3223H6.61084V10.1284H8.99316V17.3223Z" fill="white"/>
<path d="M7.80196 9.14586H7.78643C6.987 9.14586 6.46997 8.5935 6.46997 7.90316C6.46997 7.19724 7.00282 6.66016 7.81778 6.66016C8.63273 6.66016 9.13424 7.19724 9.14976 7.90316C9.14976 8.5935 8.63273 9.14586 7.80196 9.14586Z" fill="white"/>
<path d="M17.5833 17.3222H15.2012V13.4736C15.2012 12.5065 14.8563 11.8468 13.9943 11.8468C13.3363 11.8468 12.9443 12.2918 12.7721 12.7213C12.7091 12.875 12.6937 13.0898 12.6937 13.3048V17.3222H10.3115C10.3115 17.3222 10.3427 10.8032 10.3115 10.1283H12.6937V11.1469C13.0103 10.6567 13.5767 9.95947 14.8406 9.95947C16.408 9.95947 17.5833 10.9876 17.5833 13.1972V17.3222Z" fill="white"/>
</svg>
