<svg width="85" height="37" viewBox="0 0 85 37" fill="none" xmlns="http://www.w3.org/2000/svg">
<g clip-path="url(#clip0_38_128)">
<g clip-path="url(#clip1_38_128)">
<path d="M11.2143 2.96387H12.5609L10.1658 10.0454H9.14838L8.02857 6.00693L6.92925 10.0461H5.90048L3.51672 2.96387H4.86337L6.42549 7.91804L7.53543 3.94029H8.53234L9.64228 7.93852L11.2143 2.96387Z" fill="#172B4D"/>
<path d="M13.921 6.50978C13.921 4.50611 15.4938 2.84082 17.5187 2.84082C19.533 2.84082 21.1163 4.50611 21.1163 6.50978C21.1163 8.51421 19.5337 10.1689 17.5187 10.1689C15.4938 10.1696 13.921 8.51421 13.921 6.50978ZM19.8622 6.50978C19.8622 5.15327 18.8653 4.01297 17.5088 4.01297C16.1622 4.01297 15.1858 5.15327 15.1858 6.50978C15.1858 7.86705 16.1622 8.99748 17.5088 8.99748C18.8653 8.99748 19.8622 7.86705 19.8622 6.50978Z" fill="#172B4D"/>
<path d="M31.4896 10.0463H30.2355L29.6703 5.28791L27.7584 9.24441H26.7411L24.8193 5.29777L24.2435 10.0463H22.9894L23.8528 2.96484H24.9422L27.2448 7.83707L29.5368 2.96484H30.6262L31.4896 10.0463Z" fill="#172B4D"/>
<path d="M35.0804 8.92556H38.2874V10.0454H33.837V2.96387H38.1842V4.08444H35.0804V5.99555H37.7935V7.13736H35.0804V8.92556Z" fill="#172B4D"/>
<path d="M44.5898 2.96387H45.8439V10.0454H44.7029L41.876 5.27632V10.0454H40.6227V2.96387H41.8047L44.5898 7.69195V2.96387Z" fill="#172B4D"/>
<path d="M58.6957 2.96387H60.0416L57.6472 10.0454H56.6298L55.5093 6.00693L54.41 10.0461H53.3827L50.9982 2.96463H52.3448L53.907 7.9188L55.0169 3.94105H56.0138L57.1237 7.93928L58.6957 2.96387Z" fill="#172B4D"/>
<path d="M66.1819 2.96387H67.436V10.0454H66.1819V7.08577H63.242V10.0461H61.9879V2.96387H63.242V5.9652H66.1819V2.96387Z" fill="#172B4D"/>
<path d="M69.7101 6.50978C69.7101 4.50611 71.2828 2.84082 73.3078 2.84082C75.322 2.84082 76.9054 4.50611 76.9054 6.50978C76.9054 8.51421 75.3228 10.1689 73.3078 10.1689C71.2828 10.1696 69.7101 8.51421 69.7101 6.50978ZM75.6505 6.50978C75.6505 5.15327 74.6536 4.01297 73.2971 4.01297C71.9505 4.01297 70.9741 5.15327 70.9741 6.50978C70.9741 7.86705 71.9505 8.99748 73.2971 8.99748C74.6536 8.99748 75.6505 7.86705 75.6505 6.50978Z" fill="#172B4D"/>
<path d="M3.50208 24.6059C3.50208 19.2587 7.77951 14.8174 13.0986 14.8174C16.197 14.8174 18.9116 16.2703 20.611 18.4917L18.0884 20.4112C16.9368 18.9029 15.2373 17.9432 13.1805 17.9432C9.58894 17.9432 6.8744 20.987 6.8744 24.6059C6.8744 28.2248 9.53432 31.2405 13.1813 31.2405C15.2381 31.2405 16.9375 30.2808 18.0892 28.7733L20.6118 30.6928C18.9116 32.9134 16.1978 34.367 13.0994 34.367C7.7795 34.3663 3.50208 29.9515 3.50208 24.6059Z" fill="#172B4D"/>
<path d="M22.3121 24.6059C22.3121 19.2587 26.5068 14.8174 31.9086 14.8174C37.2823 14.8174 41.5051 19.2587 41.5051 24.6059C41.5051 29.9523 37.2823 34.3663 31.9086 34.3663C26.5068 34.3663 22.3121 29.9515 22.3121 24.6059ZM38.1593 24.6059C38.1593 20.987 35.5001 17.9432 31.8805 17.9432C28.2889 17.9432 25.6844 20.987 25.6844 24.6059C25.6844 28.2248 28.2889 31.2405 31.8805 31.2405C35.5001 31.2405 38.1593 28.2248 38.1593 24.6059Z" fill="#172B4D"/>
<path d="M52.5261 15.1465C57.9271 15.1465 61.0809 19.2593 61.0809 24.633C61.0809 29.9802 57.9279 34.0376 52.5261 34.0376H45.1237V15.1465H52.5261ZM52.5261 31.0484C55.953 31.0484 57.7079 28.1419 57.7079 24.6323C57.7079 21.0961 55.953 18.1342 52.5261 18.1342H48.4687V31.0484H52.5261Z" fill="#172B4D"/>
<path d="M68.1269 31.0481H76.681V34.0365H64.8092V15.1455H76.4071V18.1339H68.1269V23.2337H75.3655V26.2768H68.1269V31.0481Z" fill="#172B4D"/>
<path d="M82.3978 32.6225C82.3978 33.7718 81.4844 34.702 80.335 34.702C79.1863 34.702 78.2789 33.7711 78.2789 32.6225C78.2789 31.4738 79.1863 30.5361 80.335 30.5361C81.4844 30.5361 82.3978 31.4731 82.3978 32.6225ZM82.0321 32.6225C82.0321 31.6733 81.278 30.9018 80.335 30.9018C79.3866 30.9018 78.6378 31.6733 78.6378 32.6225C78.6378 33.5708 79.3859 34.3371 80.335 34.3371C81.278 34.3363 82.0321 33.5708 82.0321 32.6225ZM80.6589 32.9403L81.1718 33.6527H80.6946L80.2052 32.9631H80.0634V33.6527H79.6332V31.6255H80.4404C80.9002 31.6255 81.1179 31.9442 81.1179 32.2795C81.1187 32.6687 80.948 32.8698 80.6589 32.9403ZM80.0641 32.0208V32.6042H80.3881C80.6058 32.6042 80.6946 32.4389 80.6946 32.3099C80.6946 32.1809 80.6058 32.0216 80.4002 32.0216L80.0641 32.0208Z" fill="#172B4D"/>
</g>
</g>
<defs>
<clipPath id="clip0_38_128">
<rect width="84" height="36" fill="white" transform="translate(0.397583 0.589844)"/>
</clipPath>
<clipPath id="clip1_38_128">
<rect width="84" height="36" fill="white" transform="translate(0.397583 0.589844)"/>
</clipPath>
</defs>
</svg>
