<svg width="125" height="43" viewBox="0 0 125 43" fill="none" xmlns="http://www.w3.org/2000/svg">
<path d="M51.9243 18.167V23.0142H46.1958V41.3214H40.6676V22.9741H34.9391V18.167H51.9243Z" fill="white"/>
<path d="M58.9748 41.3213H53.8872V23.2945H58.9748V26.7396C59.9362 24.296 61.4985 22.8538 64.2626 23.0541V28.382C60.6573 28.1016 58.9748 28.9829 58.9748 31.8672V41.3213Z" fill="white"/>
<path d="M92.144 41.4816C88.779 41.4816 86.6959 39.8792 86.6959 36.0736V16.3242H91.8235V35.3525C91.8235 36.4341 92.5446 36.8347 93.4259 36.8347C93.6663 36.8347 93.9467 36.8347 94.1871 36.7946V41.2412C93.506 41.4015 92.825 41.4816 92.144 41.4816Z" fill="white"/>
<path d="M102.88 41.4816C99.515 41.4816 97.4319 39.8792 97.4319 36.0736V16.3242H102.56V35.3525C102.56 36.4341 103.281 36.8347 104.162 36.8347C104.402 36.8347 104.683 36.8347 104.923 36.7946V41.2412C104.242 41.4015 103.561 41.4816 102.88 41.4816Z" fill="white"/>
<path d="M107.367 32.308C107.367 26.7397 110.571 22.9341 116.1 22.9341C121.628 22.9341 124.753 26.7397 124.753 32.308C124.753 37.8763 121.588 41.7621 116.1 41.7621C110.612 41.7621 107.367 37.8362 107.367 32.308ZM112.374 32.308C112.374 35.0321 113.496 37.1552 116.1 37.1552C118.704 37.1552 119.745 34.992 119.745 32.308C119.745 29.624 118.623 27.5009 116.1 27.5009C113.576 27.5009 112.374 29.584 112.374 32.308Z" fill="white"/>
<path d="M71.1528 33.9505C72.595 34.1107 74.0371 34.1908 75.4392 34.1908C79.365 34.1908 82.6499 33.1493 82.6499 29.3436C82.6499 25.6581 79.2449 22.894 75.1588 22.894C69.6706 22.894 66.1454 26.9 66.1454 32.4282C66.1454 38.1968 69.1899 41.6419 76.0401 41.6419C78.0831 41.682 80.0861 41.3214 82.009 40.6004V36.2739C80.2463 36.8348 78.2434 37.3956 76.2404 37.3956C73.5163 37.4357 71.6335 36.5143 71.1528 33.9505ZM75.0787 26.8599C76.5208 26.8599 77.6825 27.8214 77.6825 29.1834C77.6825 30.9059 75.8398 31.4668 73.7567 31.4668C72.8754 31.4668 71.954 31.3867 71.0727 31.2665C71.1528 30.4252 71.3932 29.624 71.7938 28.8629C72.4347 27.6211 73.7166 26.8599 75.0787 26.8599Z" fill="white"/>
<path d="M22.16 16.3242H3.13176C1.48932 16.3242 0.167358 17.6462 0.167358 19.2886V38.357C0.167358 39.9994 1.48932 41.3214 3.13176 41.3214H22.16C23.8025 41.3214 25.1244 39.9994 25.1244 38.357V19.2886C25.1244 17.6462 23.8025 16.3242 22.16 16.3242ZM10.9033 34.3109C10.9033 34.8718 10.4627 35.3124 9.90182 35.3124H5.73563C5.1748 35.3124 4.73414 34.8718 4.73414 34.3109V21.9326C4.73414 21.3717 5.1748 20.9311 5.73563 20.9311H9.90182C10.4627 20.9311 10.9033 21.3717 10.9033 21.9326V34.3109ZM20.5176 28.6225C20.5176 29.1833 20.0769 29.624 19.5562 29.624H15.3499C14.7891 29.624 14.3484 29.1833 14.3484 28.6225V21.9326C14.3484 21.3717 14.7891 20.9311 15.3499 20.9311H19.5161C20.0769 20.9311 20.5176 21.3717 20.5176 21.9326V28.6225Z" fill="url(#paint0_linear_38_187)"/>
<g opacity="0.7">
<path d="M77.282 6.74984C77.282 5.14745 76.2404 4.42638 74.3176 3.94567C73.1158 3.62519 72.8354 3.38484 72.8354 2.98424C72.8354 2.50353 73.276 2.26317 74.0772 2.26317C75.0386 2.30323 76.0001 2.54359 76.8814 2.98424V0.981264C76.0401 0.580669 75.0787 0.380371 74.1573 0.380371C72.0342 0.380371 70.8725 1.38186 70.8725 3.0243C70.8725 4.58662 71.914 5.38781 73.6766 5.78841C74.9185 6.06882 75.279 6.26912 75.279 6.78989C75.279 7.19049 74.9986 7.51097 74.0772 7.51097C72.9556 7.47091 71.8339 7.15043 70.8324 6.5896V8.71275C71.8339 9.19347 72.9155 9.47388 74.0372 9.47388C76.2004 9.47388 77.282 8.39228 77.282 6.74984Z" fill="white"/>
<path d="M101.478 0.540548V9.35364H103.361V2.62364L104.162 4.38626L106.806 9.31358H109.169V0.500488H107.287V6.18894L106.565 4.5465L104.442 0.500488H101.478V0.540548Z" fill="white"/>
<path d="M89.5803 0.540527H87.5372V9.35362H89.5803V0.540527Z" fill="white"/>
<path d="M54.9688 0.540527V9.35362H59.175L59.816 7.43076H57.0118V0.540527H54.9688Z" fill="white"/>
<path d="M46.6365 0.540527V2.46338H48.9199V9.35362H50.9629V2.46338H53.4065V0.540527H46.6365Z" fill="white"/>
<path d="M43.672 0.540527H40.988L37.9034 9.35362H40.267L40.7076 7.87142C41.2284 8.03166 41.7892 8.11178 42.35 8.11178C42.9109 8.11178 43.4717 8.03166 43.9925 7.87142L44.4331 9.35362H46.7967L43.672 0.540527ZM42.31 6.26904C41.9094 6.26904 41.5489 6.22898 41.1883 6.1088L42.31 2.26309L43.4317 6.1088C43.0711 6.22898 42.7106 6.26904 42.31 6.26904Z" fill="white"/>
<path d="M66.3858 0.540527H63.7018L60.6172 9.35362H62.9807L63.4214 7.87142C63.9421 8.03166 64.503 8.11178 65.0638 8.11178C65.6246 8.11178 66.1855 8.03166 66.7062 7.87142L67.1469 9.35362H69.5104L66.3858 0.540527ZM65.0638 6.26904C64.6632 6.26904 64.3027 6.22898 63.9421 6.1088L65.0638 2.26309L66.1855 6.1088C65.8249 6.22898 65.4243 6.26904 65.0638 6.26904Z" fill="white"/>
<path d="M96.9512 0.540527H94.2672L91.1826 9.35362H93.5461L93.9868 7.87142C94.5076 8.03166 95.0684 8.11178 95.6292 8.11178C96.1901 8.11178 96.7509 8.03166 97.2717 7.87142L97.7123 9.35362H100.076L96.9512 0.540527ZM95.5892 6.26904C95.1886 6.26904 94.828 6.22898 94.4675 6.1088L95.5892 2.26309L96.7108 6.1088C96.3503 6.22898 95.9898 6.26904 95.5892 6.26904Z" fill="white"/>
<path d="M85.414 6.74984C85.414 5.14745 84.3724 4.42638 82.4496 3.94567C81.2478 3.62519 80.9674 3.38484 80.9674 2.98424C80.9674 2.50353 81.408 2.26317 82.1692 2.26317C83.1306 2.30323 84.092 2.54359 84.9733 2.98424V0.981264C84.092 0.580669 83.1706 0.380371 82.2092 0.380371C80.0861 0.380371 78.9243 1.38186 78.9243 3.0243C78.9243 4.58662 79.9659 5.38781 81.7285 5.78841C82.9703 6.06882 83.3309 6.26912 83.3309 6.78989C83.3309 7.19049 83.0505 7.51097 82.1291 7.51097C81.0074 7.47091 79.8858 7.15043 78.8843 6.5896V8.71275C79.8858 9.19347 80.9674 9.47388 82.089 9.47388C84.3724 9.47388 85.414 8.39228 85.414 6.74984Z" fill="white"/>
</g>
<defs>
<linearGradient id="paint0_linear_38_187" x1="1247.82" y1="2516.04" x2="1247.82" y2="16.7241" gradientUnits="userSpaceOnUse">
<stop stop-color="white" stop-opacity="0.5"/>
<stop offset="0.15" stop-color="white" stop-opacity="0.65"/>
<stop offset="0.3" stop-color="white" stop-opacity="0.78"/>
<stop offset="0.46" stop-color="white" stop-opacity="0.88"/>
<stop offset="0.62" stop-color="white" stop-opacity="0.95"/>
<stop offset="0.8" stop-color="white" stop-opacity="0.99"/>
<stop offset="1" stop-color="white"/>
</linearGradient>
</defs>
</svg>
