<svg width="112" height="39" viewBox="0 0 112 39" fill="none" xmlns="http://www.w3.org/2000/svg">
<path d="M19.7617 15.137H2.80448C1.3408 15.137 0.16272 16.3151 0.16272 17.7788V34.7717C0.16272 36.2354 1.3408 37.4135 2.80448 37.4135H19.7617C21.2254 37.4135 22.4035 36.2354 22.4035 34.7717V17.7788C22.4035 16.3151 21.2254 15.137 19.7617 15.137ZM9.73017 31.1661C9.73017 31.6659 9.33747 32.0586 8.83768 32.0586H5.12494C4.62515 32.0586 4.23245 31.6659 4.23245 31.1661V20.1349C4.23245 19.6352 4.62515 19.2425 5.12494 19.2425H8.83768C9.33747 19.2425 9.73017 19.6352 9.73017 20.1349V31.1661ZM18.298 26.0967C18.298 26.5965 17.9053 26.9892 17.4412 26.9892H13.6928C13.193 26.9892 12.8003 26.5965 12.8003 26.0967V20.1349C12.8003 19.6352 13.193 19.2425 13.6928 19.2425H17.4055C17.9053 19.2425 18.298 19.6352 18.298 20.1349V26.0967Z" fill="url(#paint0_linear_38_263)"/>
<path d="M46.2858 16.7792V21.0988H41.1808V37.4135H36.2543V21.0631H31.1493V16.7792H46.2858Z" fill="#253858"/>
<path d="M52.5686 37.4133H48.0348V21.3486H52.5686V24.4188C53.4254 22.2411 54.8177 20.9559 57.2809 21.1344V25.8824C54.068 25.6325 52.5686 26.4179 52.5686 28.9883V37.4133Z" fill="#253858"/>
<path d="M82.1272 37.5563C79.1285 37.5563 77.2721 36.1283 77.2721 32.7368V15.137H81.8416V32.0943C81.8416 33.0581 82.4842 33.4151 83.2696 33.4151C83.4838 33.4151 83.7337 33.4151 83.9479 33.3794V37.3421C83.341 37.4849 82.7341 37.5563 82.1272 37.5563Z" fill="#253858"/>
<path d="M91.6945 37.5563C88.6957 37.5563 86.8394 36.1283 86.8394 32.7368V15.137H91.4089V32.0943C91.4089 33.0581 92.0515 33.4151 92.8369 33.4151C93.0511 33.4151 93.301 33.4151 93.5151 33.3794V37.3421C92.9083 37.4849 92.3014 37.5563 91.6945 37.5563Z" fill="#253858"/>
<path d="M95.6927 29.381C95.6927 24.4188 98.5487 21.0273 103.475 21.0273C108.402 21.0273 111.186 24.4188 111.186 29.381C111.186 34.3432 108.366 37.806 103.475 37.806C98.5844 37.806 95.6927 34.3075 95.6927 29.381ZM100.155 29.381C100.155 31.8085 101.155 33.7006 103.475 33.7006C105.796 33.7006 106.724 31.7728 106.724 29.381C106.724 26.9891 105.724 25.097 103.475 25.097C101.226 25.097 100.155 26.9534 100.155 29.381Z" fill="#253858"/>
<path d="M63.421 30.8447C64.7062 30.9875 65.9914 31.0589 67.2409 31.0589C70.7394 31.0589 73.6668 30.1307 73.6668 26.7392C73.6668 23.4549 70.6323 20.9916 66.991 20.9916C62.1002 20.9916 58.9586 24.5616 58.9586 29.4881C58.9586 34.6288 61.6718 37.699 67.7764 37.699C69.597 37.7347 71.382 37.4134 73.0956 36.7708V32.9152C71.5248 33.415 69.7398 33.9148 67.9549 33.9148C65.5273 33.9505 63.8494 33.1294 63.421 30.8447ZM66.9196 24.5259C68.2048 24.5259 69.2401 25.3827 69.2401 26.5964C69.2401 28.1315 67.5979 28.6313 65.7415 28.6313C64.9561 28.6313 64.135 28.5599 63.3496 28.4528C63.421 27.7031 63.6352 26.9891 63.9922 26.3109C64.5634 25.2042 65.7058 24.5259 66.9196 24.5259Z" fill="#253858"/>
<path d="M68.8829 6.6051C68.8829 5.17713 67.9547 4.53454 66.2411 4.10614C65.1701 3.82055 64.9202 3.60635 64.9202 3.24936C64.9202 2.82096 65.3129 2.60677 66.0269 2.60677C66.8837 2.64247 67.7405 2.85666 68.5259 3.24936V1.46439C67.7762 1.10739 66.9194 0.928894 66.0983 0.928894C64.2062 0.928894 63.171 1.82138 63.171 3.28506C63.171 4.67733 64.0991 5.39132 65.6699 5.74832C66.7766 5.99821 67.0979 6.17671 67.0979 6.6408C67.0979 6.9978 66.848 7.28339 66.0269 7.28339C65.0273 7.24769 64.0277 6.9621 63.1353 6.4623V8.35438C64.0277 8.78277 64.9916 9.03266 65.9912 9.03266C67.919 9.03266 68.8829 8.06878 68.8829 6.6051Z" fill="#0052CC"/>
<path d="M90.4448 1.07168V8.92555H92.1227V2.92805L92.8367 4.49882L95.1928 8.88985H97.2991V1.03598H95.6212V6.1053L94.9787 4.64162L93.0866 1.03598H90.4448V1.07168Z" fill="#0052CC"/>
<path d="M79.8424 1.07169H78.0217V8.92556H79.8424V1.07169Z" fill="#0052CC"/>
<path d="M48.9985 1.07169V8.92556H52.747L53.3182 7.21199H50.8192V1.07169H48.9985Z" fill="#0052CC"/>
<path d="M41.5734 1.07169V2.78526H43.6082V8.92556H45.4289V2.78526H47.6066V1.07169H41.5734Z" fill="#0052CC"/>
<path d="M38.9316 1.07169H36.5397L33.7909 8.92556H35.8972L36.2899 7.60468C36.7539 7.74748 37.2537 7.81888 37.7535 7.81888C38.2533 7.81888 38.7531 7.74748 39.2172 7.60468L39.6099 8.92556H41.7162L38.9316 1.07169ZM37.7178 6.1767C37.3608 6.1767 37.0395 6.141 36.7182 6.03391L37.7178 2.60676L38.7174 6.03391C38.3961 6.141 38.0748 6.1767 37.7178 6.1767Z" fill="#0052CC"/>
<path d="M59.1728 1.07169H56.781L54.0321 8.92556H56.1384L56.5311 7.60468C56.9952 7.74748 57.4949 7.81888 57.9947 7.81888C58.4945 7.81888 58.9943 7.74748 59.4584 7.60468L59.8511 8.92556H61.9574L59.1728 1.07169ZM57.9947 6.1767C57.6377 6.1767 57.3165 6.141 56.9952 6.03391L57.9947 2.60676L58.9943 6.03391C58.673 6.141 58.316 6.1767 57.9947 6.1767Z" fill="#0052CC"/>
<path d="M86.411 1.07169H84.0191L81.2703 8.92556H83.3765L83.7692 7.60468C84.2333 7.74748 84.7331 7.81888 85.2329 7.81888C85.7327 7.81888 86.2325 7.74748 86.6966 7.60468L87.0893 8.92556H89.1955L86.411 1.07169ZM85.1972 6.1767C84.8402 6.1767 84.5189 6.141 84.1976 6.03391L85.1972 2.60676L86.1968 6.03391C85.8755 6.141 85.5542 6.1767 85.1972 6.1767Z" fill="#0052CC"/>
<path d="M76.1298 6.6051C76.1298 5.17713 75.2016 4.53454 73.488 4.10614C72.4171 3.82055 72.1672 3.60635 72.1672 3.24936C72.1672 2.82096 72.5599 2.60677 73.2381 2.60677C74.0949 2.64247 74.9517 2.85666 75.7371 3.24936V1.46439C74.9517 1.10739 74.1306 0.928894 73.2738 0.928894C71.3818 0.928894 70.3465 1.82138 70.3465 3.28506C70.3465 4.67733 71.2747 5.39132 72.8454 5.74832C73.9521 5.99821 74.2734 6.17671 74.2734 6.6408C74.2734 6.9978 74.0235 7.28339 73.2024 7.28339C72.2029 7.24769 71.2033 6.9621 70.3108 6.4623V8.35438C71.2033 8.78277 72.1672 9.03266 73.1667 9.03266C75.2016 9.03266 76.1298 8.06878 76.1298 6.6051Z" fill="#0052CC"/>
<defs>
<linearGradient id="paint0_linear_38_263" x1="3469.16" y1="2354.16" x2="3469.16" y2="15.5112" gradientUnits="userSpaceOnUse">
<stop stop-color="#0052CC"/>
<stop offset="1" stop-color="#2684FF"/>
</linearGradient>
</defs>
</svg>
