<svg width="97" height="98" viewBox="0 0 97 98" fill="none" xmlns="http://www.w3.org/2000/svg">
<path d="M48.5026 33.26V65.01H20.5026V54.25C21.7126 55.34 23.3126 55.99 25.0626 55.99C28.8526 55.99 31.9126 52.92 31.9126 49.14C31.9126 45.36 28.8426 42.29 25.0626 42.29C23.3126 42.29 21.7126 42.94 20.5026 44.03V33.27H48.5026V33.26Z" fill="#BF63F3"/>
<path d="M76.2926 33.26H48.5026V65.02H76.2926V33.26Z" fill="#1868DB"/>
<path d="M53.0528 55.9903C56.8359 55.9903 59.9028 52.9234 59.9028 49.1403C59.9028 45.3571 56.8359 42.2903 53.0528 42.2903C49.2696 42.2903 46.2028 45.3571 46.2028 49.1403C46.2028 52.9234 49.2696 55.9903 53.0528 55.9903Z" fill="#BF63F3"/>
<path d="M34.5025 35.2603C38.2856 35.2603 41.3525 32.1934 41.3525 28.4103C41.3525 24.6271 38.2856 21.5603 34.5025 21.5603C30.7193 21.5603 27.6525 24.6271 27.6525 28.4103C27.6525 32.1934 30.7193 35.2603 34.5025 35.2603Z" fill="#BF63F3"/>
<path d="M62.3926 76.72C66.1758 76.72 69.2426 73.6532 69.2426 69.87C69.2426 66.0869 66.1758 63.02 62.3926 63.02C58.6095 63.02 55.5426 66.0869 55.5426 69.87C55.5426 73.6532 58.6095 76.72 62.3926 76.72Z" fill="#1868DB"/>
</svg>
