<svg width="97" height="98" viewBox="0 0 97 98" fill="none" xmlns="http://www.w3.org/2000/svg">
<path fill-rule="evenodd" clip-rule="evenodd" d="M34.0375 34.26H44.4475L47.7275 43L56.9375 41.47L62.1475 50.49L56.2175 57.7L62.1475 64.91L56.9375 73.93L47.7275 72.4L44.4475 81.14H34.0375L30.7575 72.4L21.5475 73.93L16.3375 64.91L22.2675 57.7L16.3375 50.49L21.5475 41.47L30.7575 43L34.0375 34.26ZM39.2475 66.48C44.0975 66.48 48.0375 62.55 48.0375 57.69C48.0375 52.83 44.1075 48.9 39.2475 48.9C34.3875 48.9 30.4575 52.83 30.4575 57.69C30.4575 62.55 34.3875 66.48 39.2475 66.48Z" fill="#1868DB"/>
<path fill-rule="evenodd" clip-rule="evenodd" d="M58.4575 17.3701H66.5875L69.1475 24.1901L76.3275 22.9901L80.3875 30.0301L75.7575 35.6601L80.3875 41.2801L76.3275 48.3201L69.1475 47.1301L66.5875 53.9501H58.4575L55.8975 47.1301L48.7175 48.3201L44.6575 41.2801L49.2875 35.6601L44.6575 30.0401L48.7175 23.0001L55.8975 24.2001L58.4575 17.3801V17.3701ZM62.5175 42.5201C66.3075 42.5201 69.3775 39.4501 69.3775 35.6601C69.3775 31.8701 66.3075 28.8001 62.5175 28.8001C58.7275 28.8001 55.6575 31.8701 55.6575 35.6601C55.6575 39.4501 58.7275 42.5201 62.5175 42.5201Z" fill="#BF63F3"/>
<path fill-rule="evenodd" clip-rule="evenodd" d="M56.9275 41.46L47.7175 43L46.3175 39.25L44.6475 41.28L48.7175 48.32L55.8975 47.12L58.4575 53.94H59.2875L62.1375 50.48L56.9275 41.46Z" fill="#09326C"/>
<path fill-rule="evenodd" clip-rule="evenodd" d="M56.9275 41.46L47.7175 43L46.3175 39.25L44.6475 41.28L48.7175 48.32L55.8975 47.12L58.4575 53.94H59.2875L62.1375 50.48L56.9275 41.46Z" fill="#09326C"/>
</svg>
