<svg width="25" height="25" viewBox="0 0 25 25" fill="none" xmlns="http://www.w3.org/2000/svg">
<rect x="1.71997" y="1.66016" width="22" height="22" rx="11" stroke="white" stroke-width="2"/>
<path d="M18.1455 8.99685C17.7813 9.16229 17.3804 9.26272 16.9871 9.3289C17.1737 9.29744 17.4488 8.9584 17.5589 8.82116C17.7267 8.61191 17.8663 8.37353 17.9447 8.11605C17.9547 8.09601 17.9624 8.07061 17.9422 8.05547C17.9171 8.04545 17.9008 8.05057 17.8809 8.06059C17.4419 8.29664 16.988 8.46791 16.5049 8.58907C16.4647 8.59909 16.435 8.58907 16.41 8.56391C16.3698 8.51847 16.3322 8.47583 16.2897 8.44041C16.0866 8.26705 15.8686 8.13096 15.623 8.03053C15.3005 7.89841 14.9481 7.84249 14.6006 7.86533C14.2625 7.88723 13.9306 7.983 13.6306 8.14028C13.33 8.2978 13.0618 8.51707 12.8483 8.78178C12.6272 9.05534 12.4643 9.37853 12.3809 9.72107C12.3004 10.0517 12.3069 10.3789 12.3561 10.713C12.3635 10.7685 12.3586 10.7759 12.3087 10.7685C10.4185 10.4861 8.85174 9.80728 7.58 8.35256C7.52475 8.28941 7.4948 8.28941 7.44953 8.35746C6.89306 9.19468 7.16305 10.5401 7.85835 11.2012C7.95098 11.2893 8.04617 11.3773 8.14901 11.4577C8.1114 11.4654 7.64872 11.4151 7.23642 11.2012C7.18139 11.166 7.15354 11.1863 7.14866 11.249C7.14355 11.3396 7.15121 11.4228 7.16352 11.5209C7.27031 12.3698 7.85603 13.1548 8.65812 13.461C8.7533 13.5013 8.85847 13.5365 8.96131 13.5542C8.77838 13.5943 8.59033 13.6232 8.06636 13.5819C8.00113 13.5693 7.97606 13.602 8.00113 13.6649C8.39486 14.7421 9.24477 15.0627 9.88134 15.2454C9.96654 15.2603 10.052 15.2603 10.1374 15.2804C10.1323 15.2881 10.1272 15.2881 10.1223 15.2955C9.91105 15.6187 9.17907 15.8592 8.83804 15.9787C8.21819 16.1961 7.54309 16.294 6.88772 16.2292C6.78302 16.2138 6.76097 16.215 6.73241 16.2292C6.70386 16.2469 6.72893 16.2721 6.76259 16.2996C6.89561 16.3877 7.03073 16.4657 7.16863 16.5412C7.58488 16.7626 8.01877 16.939 8.4724 17.0646C10.8153 17.714 13.4544 17.2368 15.2134 15.4826C16.595 14.1048 17.079 12.205 17.079 10.3029C17.079 10.2283 17.1668 10.1871 17.2188 10.148C17.5781 9.87696 17.8639 9.5526 18.1321 9.19026C18.1922 9.10893 18.1886 9.03647 18.1886 9.00687C18.1886 9.00175 18.1886 8.99685 18.1886 8.99685C18.1886 8.96633 18.1922 8.97565 18.1455 8.99685Z" fill="white"/>
</svg>
