<svg width="25" height="25" viewBox="0 0 25 25" fill="none" xmlns="http://www.w3.org/2000/svg">
<rect x="1.96997" y="1.66016" width="22" height="22" rx="11" stroke="white" stroke-width="2"/>
<path d="M14.5717 12.7662L11.9128 14.2299C11.7971 14.2927 11.6932 14.2086 11.6932 14.0768V11.0723C11.6932 10.9387 11.8004 10.8547 11.9161 10.9209L14.5932 12.4616C14.7115 12.5292 14.6914 12.701 14.5717 12.7662ZM18.7779 11.0401C18.7779 9.61504 17.6271 8.45996 16.2076 8.45996H9.54056C8.12101 8.45996 6.96997 9.61504 6.96997 11.0401V14.1761C6.96997 15.6012 8.12101 16.7563 9.54056 16.7563H16.2076C17.6271 16.7563 18.7779 15.6012 18.7779 14.1761V11.0401Z" fill="white"/>
</svg>
